<?xml version="1.0" encoding="utf-8"?>
<!-- Generator: Adobe Illustrator 25.0.0, SVG Export Plug-In . SVG Version: 6.00 Build 0)  -->
<svg version="1.1" id="Capa_1" xmlns="http://www.w3.org/2000/svg" xmlns:xlink="http://www.w3.org/1999/xlink" x="0px" y="0px"
	 viewBox="0 0 545.33 158" style="enable-background:new 0 0 545.33 158;" xml:space="preserve">
<style type="text/css">
	.st0{fill:#FFFFFF;}
	.st1{fill:none;stroke:#E6007E;stroke-width:0.9296;stroke-miterlimit:10;}
	.st2{fill:#E6007E;}
</style>
<g>
	<g>
		<g>
			<g>
				<path class="st0" d="M168.64,80.17v11.23c-3.79,3.1-9.16,5.07-14.98,5.07c-10.05,0-18.28-7.88-18.28-17.54
					s8.23-17.54,18.28-17.54c5.72,0,10.4,1.92,13.7,4.98l-1.23,1.33c-3.01-2.76-7.29-4.48-12.47-4.48
					c-9.02,0-16.41,7.05-16.41,15.72c0,8.72,7.39,15.77,16.41,15.77c5.22,0,9.71-1.63,13.15-4.24v-8.62h-14.04v-1.68H168.64z"/>
				<path class="st0" d="M229.83,74.04c6.21,0.61,9.64,5.96,9.64,11.46c0,5.91-3.74,11.26-10.75,11.26h-16.96V61.16h12.67
					c4.49,0,8.08,3.03,8.08,7.07C232.51,70.2,231.75,72.67,229.83,74.04z M213.61,73.8h12.24c3.51,0,4.71-3.21,4.71-5.42
					c0-3.21-2.86-5.47-6.47-5.47h-10.48V73.8z M228.15,94.76c6.07,0,9.18-4.51,9.18-9.53c0-4.96-3.11-9.78-9.18-9.78h-14.54v19.31
					H228.15z"/>
			</g>
		</g>
		<polyline class="st0" points="189.21,61.34 173.17,96.88 175.19,96.88 189.86,63.61 204.63,96.88 206.6,96.88 190.62,61.34 		"/>
		<polyline class="st0" points="260.15,61.34 244.12,96.88 246.13,96.88 260.8,63.61 275.58,96.88 277.54,96.88 261.56,61.34 		"/>
	</g>
	<g>
		<path class="st0" d="M301.69,84.39c-1,0.1-2.1,0.15-3.15,0.15h-10.39v12.14h-1.85V61.46h13.54c9.09,0,12.24,5.39,12.24,11.24
			c0,6.44-3.3,10.04-8.49,11.29l9.44,12.69h-2.3L301.69,84.39z M288.15,82.84h10.34c6.89,0,11.64-2.95,11.64-10.09
			c0-5-2.7-9.54-10.39-9.54h-11.59V82.84z"/>
		<path class="st0" d="M354.89,79.1c0,9.79-8.24,17.78-18.48,17.78s-18.53-7.99-18.53-17.78s8.29-17.78,18.53-17.78
			S354.89,69.31,354.89,79.1z M353,79.1c0-8.79-7.39-15.99-16.58-15.99c-9.14,0-16.63,7.19-16.63,15.99s7.49,15.93,16.63,15.93
			C345.6,95.03,353,87.89,353,79.1z"/>
		<path class="st0" d="M364.44,61.46v31.67l25.78-31.67h1.25v35.22h-1.85V65.01l-25.83,31.67h-1.2V61.46H364.44z"/>
		<path class="st0" d="M412.94,96.68h-11.99V61.46h10.84c9.79,0,17.73,7.89,17.73,17.63C429.53,88.44,422.19,96.08,412.94,96.68z
			 M412.8,94.93c8.14-0.7,14.84-7.49,14.84-15.84c0-8.79-7.09-15.88-15.84-15.88h-8.99v31.72H412.8z"/>
		<path class="st0" d="M472.34,79.1c0,9.79-8.24,17.78-18.48,17.78s-18.53-7.99-18.53-17.78s8.29-17.78,18.53-17.78
			S472.34,69.31,472.34,79.1z M470.44,79.1c0-8.79-7.39-15.99-16.58-15.99c-9.14,0-16.63,7.19-16.63,15.99s7.49,15.93,16.63,15.93
			C463.05,95.03,470.44,87.89,470.44,79.1z"/>
		<path class="st0" d="M481.89,61.46v31.67l25.78-31.67h1.25v35.22h-1.85V65.01l-25.83,31.67h-1.2V61.46H481.89z"/>
	</g>
	<circle class="st1" cx="278.64" cy="79.04" r="2.77"/>
	<g>
		<path class="st0" d="M455.3,53.5h-1.46l6.47-6.51l1.84,0.17L455.3,53.5z"/>
	</g>
</g>
<g>
	<rect x="63.86" y="49.19" class="st2" width="19.89" height="11.18"/>
	<path class="st0" d="M89.46,49.19v0.05v11.18h11.4c9.44,0,12.67,6.13,12.67,12.71c0,7.48-4.59,12.71-14.29,12.71h-8.94V73.11H63.34
		v10.82h14.81v5.95c-3.83,2.71-8.59,4.33-13.95,4.33c-0.29,0-0.58-0.02-0.87-0.03v11.47c0.29,0.01,0.58,0.02,0.87,0.02
		c10.22,0,19.34-3.56,25.97-9.17h9.51c0.77,0,1.62,0,2.3-0.09l7.02,9.96h9.49v-6.59l-4.35-5.9c1.6-0.73,3.05-1.62,4.35-2.65V53.76
		v-4.56H89.46z"/>
</g>
</svg>
